<svg xmlns="http://www.w3.org/2000/svg" viewBox="0 0 1200 630"><rect width="1200" height="630" fill="#f8f3ea"/><g opacity=".42" fill="#e5dac9"><rect x="0" width="18" height="630"/><rect x="54" width="18" height="630"/><rect x="108" width="18" height="630"/><rect x="162" width="18" height="630"/><rect x="216" width="18" height="630"/><rect x="270" width="18" height="630"/><rect x="324" width="18" height="630"/><rect x="378" width="18" height="630"/><rect x="432" width="18" height="630"/><rect x="486" width="18" height="630"/><rect x="540" width="18" height="630"/><rect x="594" width="18" height="630"/><rect x="648" width="18" height="630"/><rect x="702" width="18" height="630"/><rect x="756" width="18" height="630"/><rect x="810" width="18" height="630"/><rect x="864" width="18" height="630"/><rect x="918" width="18" height="630"/><rect x="972" width="18" height="630"/><rect x="1026" width="18" height="630"/><rect x="1080" width="18" height="630"/><rect x="1134" width="18" height="630"/><rect x="1188" width="18" height="630"/></g><rect width="240" height="74" fill="#18334a"/><rect x="240" width="240" height="74" fill="#536d7a"/><rect x="480" width="240" height="74" fill="#82917d"/><rect x="720" width="240" height="74" fill="#b0876f"/><rect x="960" width="240" height="74" fill="#efe6d7"/><rect x="220" y="138" width="730" height="340" fill="#fffbf4" stroke="#6f838a" stroke-width="2"/><text x="600" y="320" text-anchor="middle" fill="#18334a" font-family="Georgia, 'Times New Roman', serif" font-size="86" letter-spacing="14">MILLHOUSE</text><line x1="380" x2="820" y1="360" y2="360" stroke="#82917d" stroke-width="2"/><text x="600" y="430" text-anchor="middle" fill="#474b46" font-family="Georgia, 'Times New Roman', serif" font-size="34" letter-spacing="4">A Family Company</text></svg>